<?xml version="1.0" encoding="UTF-8" standalone="no"?>
<svg viewBox="0 0 608.79798 608.79798" width="608.79797" height="608.79797" version="1.1" id="svg152"
	sodipodi:docname="Untitled(1).svg" inkscape:version="1.4 (e7c3feb100, 2024-10-09)"
	xmlns:inkscape="http://www.inkscape.org/namespaces/inkscape"
	xmlns:sodipodi="http://sodipodi.sourceforge.net/DTD/sodipodi-0.dtd" xmlns="http://www.w3.org/2000/svg"
	xmlns:svg="http://www.w3.org/2000/svg">
	<defs id="defs152" />
	<sodipodi:namedview id="namedview152" pagecolor="#ffffff" bordercolor="#000000" borderopacity="0.25"
		inkscape:showpageshadow="2" inkscape:pageopacity="0.0" inkscape:pagecheckerboard="0"
		inkscape:deskcolor="#d1d1d1" inkscape:zoom="0.74935547" inkscape:cx="178.82034" inkscape:cy="521.78174"
		inkscape:window-width="3440" inkscape:window-height="1371" inkscape:window-x="0" inkscape:window-y="0"
		inkscape:window-maximized="1" inkscape:current-layer="svg152" />
	<g fill="None" fill-opacity="0" stroke="#daac79" stroke-opacity="1" stroke-width="0.3" id="g2"
		transform="translate(-188.8241,-195.60087)">
		<path d="m 482,197 c 13,0 26,0 39,0 -11.86,-1.67 -27.07,-1.66 -39,0 z" id="path2" />
	</g>
	<g fill="None" fill-opacity="0" stroke="#d37a31" stroke-opacity="1" stroke-width="0.3" id="g3"
		transform="translate(-188.8241,-195.60087)">
		<path
			d="m 407,272 c 3.12,-2.03 2.02,5.02 3,7 3.9,1.81 2.48,-5.98 5,-8 8.38,-23.37 6.07,-64.48 40.02,-64.98 31.74,-4.47 65.88,-4.31 97.05,1.91 29.87,7.56 23.45,47.55 34.93,70.07 3.82,2.76 3.03,-5.6 5,-7 -4.37,-21.21 -5.65,-43.81 -16,-63 -15.84,-10.46 -36.02,-10.31 -55,-11 -13,0 -26,0 -39,0 -20.6,1.86 -45.85,-1.2 -60.75,14.25 C 412.83,230.2 412.1,251.9 407,272 Z"
			id="path3" />
	</g>
	<g fill="None" fill-opacity="0" stroke="#b1511d" stroke-opacity="1" stroke-width="0.3" id="g4"
		transform="translate(-188.8241,-195.60087)">
		<path
			d="m 415,271 c 41.21,-52.37 138.33,-52.01 172,7 -11.48,-22.52 -5.06,-62.51 -34.93,-70.07 -31.17,-6.22 -65.31,-6.38 -97.05,-1.91 -33.95,0.5 -31.64,41.61 -40.02,64.98 z"
			id="path4" />
	</g>
	<g fill="None" fill-opacity="0" stroke="#f3d6ae" stroke-opacity="1" stroke-width="0.3" id="g5"
		transform="translate(-188.8241,-195.60087)">
		<path
			d="m 576,208 c 10.35,19.19 11.63,41.79 16,63 0.15,0.45 0,1.5 0,2 2.03,1.77 0.53,5.48 1,8 2.15,-12.84 -1.63,-27.35 -5,-40 -2.78,-10.74 -2.59,-27.52 -12,-33 z"
			id="path5" />
	</g>
	<g fill="None" fill-opacity="0" stroke="#99351a" stroke-opacity="1" stroke-width="0.3" id="g6"
		transform="translate(-188.8241,-195.60087)">
		<path
			d="m 415,271 c -2.52,2.02 -1.1,9.81 -5,8 -0.23,3.36 3.84,4.34 4,8 51.12,5.81 104.71,1.82 157,3 7.51,0.05 18.21,0.35 21,-8 0,-3 0,-6 0,-9 0,-0.5 0.15,-1.55 0,-2 -1.97,1.4 -1.18,9.76 -5,7 -33.67,-59.01 -130.79,-59.37 -172,-7 z"
			id="path6" />
	</g>
	<g fill="None" fill-opacity="0" stroke="#662917" stroke-opacity="1" stroke-width="0.3" id="g7"
		transform="translate(-188.8241,-195.60087)">
		<path
			d="m 407,272 c -0.05,5.81 -1.17,12.9 4.93,16.07 4.59,3.09 13.34,-0.25 16.07,3.93 7.76,-2.93 15.82,1.28 24,0 8.83,0.66 18.99,-1.33 27,1 14.33,0 28.67,0 43,0 6.92,-1.64 17.15,-1.68 24,0 0.32,0.24 1,0 1,0 7.27,-1.07 16.6,-2.44 24,-1 0,-0.5 0.19,-1.92 0,-2 -52.29,-1.18 -105.88,2.81 -157,-3 -0.16,-3.66 -4.23,-4.64 -4,-8 -0.98,-1.98 0.12,-9.03 -3,-7 z"
			id="path7" />
	</g>
	<g fill="None" fill-opacity="0" stroke="#a27866" stroke-opacity="1" stroke-width="0.3" id="g8"
		transform="translate(-188.8241,-195.60087)">
		<path d="m 592,282 c 0.12,-0.26 0.78,-0.7 1,-1 -0.47,-2.52 1.03,-6.23 -1,-8 0,3 0,6 0,9 z" id="path8" />
	</g>
	<g fill="None" fill-opacity="0" stroke="#08080e" stroke-opacity="1" stroke-width="0.3" id="g9"
		transform="translate(-188.8241,-195.60087)">
		<path
			d="m 428,292 c 0,1 0,2 0,3 5.09,4.54 16.49,0.76 24,2 0,-1.33 0,-2.67 0,-4 0,-0.5 0,-1 0,-1 -8.18,1.28 -16.24,-2.93 -24,0 z"
			id="path9" />
	</g>
	<g fill="None" fill-opacity="0" stroke="#040306" stroke-opacity="1" stroke-width="0.3" id="g10"
		transform="translate(-188.8241,-195.60087)">
		<path
			d="m 547,293 c 0,1.67 0,3.33 0,5 7.85,-0.87 16.76,-0.28 24,-2 0,-1.33 0,-2.67 0,-4 -7.4,-1.44 -16.73,-0.07 -24,1 z"
			id="path10" />
	</g>
	<g fill="None" fill-opacity="0" stroke="#9b7260" stroke-opacity="1" stroke-width="0.3" id="g11"
		transform="translate(-188.8241,-195.60087)">
		<path d="m 452,293 c 9,0 18,0 27,0 -8.01,-2.33 -18.17,-0.34 -27,-1 0,0 0,0.5 0,1 z" id="path11" />
	</g>
	<g fill="None" fill-opacity="0" stroke="#8e6757" stroke-opacity="1" stroke-width="0.3" id="g12"
		transform="translate(-188.8241,-195.60087)">
		<path d="m 522,293 c 8,0 16,0 24,0 -6.85,-1.68 -17.08,-1.64 -24,0 z" id="path12" />
	</g>
	<g fill="None" fill-opacity="0" stroke="#ede5cf" stroke-opacity="1" stroke-width="0.3" id="g13"
		transform="translate(-188.8241,-195.60087)">
		<path
			d="m 452,297 c 0,3.33 0,6.67 0,10 31.67,0 63.33,0 95,0 -0.24,-0.2 0,-1 0,-1 0.72,-4.61 -1.16,-8.51 -1,-13 -8,0 -16,0 -24,0 -14.33,0 -28.67,0 -43,0 -9,0 -18,0 -27,0 0,1.33 0,2.67 0,4 z"
			id="path13" />
	</g>
	<g fill="None" fill-opacity="0" stroke="#556d77" stroke-opacity="1" stroke-width="0.3" id="g14"
		transform="translate(-188.8241,-195.60087)">
		<path
			d="m 547,306 c 0.25,-0.25 1,0 1,0 6.01,0.43 15.86,-1.16 22,1 1,0 2,0 3,0 0.12,-3.79 -0.41,-8.01 -2,-11 -7.24,1.72 -16.15,1.13 -24,2 0,-1.67 0,-3.33 0,-5 0,0 -0.68,0.24 -1,0 -0.16,4.49 1.72,8.39 1,13 z"
			id="path14" />
	</g>
	<g fill="None" fill-opacity="0" stroke="#586b74" stroke-opacity="1" stroke-width="0.3" id="g15"
		transform="translate(-188.8241,-195.60087)">
		<path
			d="m 426,307 c 8.35,1 17.74,-1.55 25,0 0.32,-0.24 1,0 1,0 0,-3.33 0,-6.67 0,-10 -7.51,-1.24 -18.91,2.54 -24,-2 -1.58,3.28 -1.59,8.04 -2,12 z"
			id="path15" />
	</g>
	<g fill="None" fill-opacity="0" stroke="#60625f" stroke-opacity="1" stroke-width="0.3" id="g16"
		transform="translate(-188.8241,-195.60087)">
		<path d="m 548,306 c 6.42,2.29 14.82,0.36 22,1 -6.14,-2.16 -15.99,-0.57 -22,-1 z" id="path16" />
	</g>
	<g fill="None" fill-opacity="0" stroke="#77624b" stroke-opacity="1" stroke-width="0.3" id="g17"
		transform="translate(-188.8241,-195.60087)">
		<path d="m 426,307 c 0,0 0,0.5 0,1 0,0.5 0,1 0,1 7.85,-2.2 17.61,0.44 25,-2 -7.26,-1.55 -16.65,1 -25,0 z"
			id="path17" />
	</g>
	<g fill="None" fill-opacity="0" stroke="#80674d" stroke-opacity="1" stroke-width="0.3" id="g18"
		transform="translate(-188.8241,-195.60087)">
		<path
			d="m 547,307 c 8.18,1.32 18.51,1.85 26,1 0,0 -0.05,-0.51 0,-1 -1,0 -2,0 -3,0 -7.18,-0.64 -15.58,1.29 -22,-1 0,0 -0.75,-0.25 -1,0 0,0 -0.24,0.8 0,1 z"
			id="path18" />
	</g>
	<g fill="None" fill-opacity="0" stroke="#d37c33" stroke-opacity="1" stroke-width="0.3" id="g19"
		transform="translate(-188.8241,-195.60087)">
		<path
			d="m 426,309 c -4.45,1.47 -9.3,1.42 -14,2 -29.53,3.25 -28.27,39.45 -35.01,60.99 -5.25,27.18 -10.31,54.43 -13.99,82.01 2.41,1.54 4.42,4.49 7,6 4.57,-40.72 10.6,-81.08 21.98,-120.02 0.75,-22.93 26.25,-25.85 44.02,-26.98 45.68,-1.15 93.05,-2.83 138,2 21.09,-1.75 34.34,15.17 36.78,34.22 3.98,19.63 9.05,38.95 12.2,58.8 0.47,19.73 11.99,41.32 3.02,59.98 0.71,3.94 -1.49,7.1 -1,11 2.64,1.64 6.86,-0.08 9,2 2,0 4,0 6,0 2.74,-0.03 5.08,1.63 8,1 1.33,0 2.67,0 4,0 0.87,-11.67 1.15,-23.9 7,-34 -7.6,-1.72 -22.37,11.64 -23.02,-0.98 -5.09,-38.2 -13.65,-75.52 -22.2,-112.8 C 610.59,314.6 589.56,309.88 573,308 c -7.49,0.85 -17.82,0.32 -26,-1 -31.67,0 -63.33,0 -95,0 0,0 -0.68,-0.24 -1,0 -7.39,2.44 -17.15,-0.2 -25,2 z"
			id="path19" />
	</g>
	<g fill="None" fill-opacity="0" stroke="#d1a571" stroke-opacity="1" stroke-width="0.3" id="g20"
		transform="translate(-188.8241,-195.60087)">
		<path d="m 412,311 c 4.7,-0.58 9.55,-0.53 14,-2 0,0 0,-0.5 0,-1 -4.31,1.99 -10.18,0.38 -14,3 z" id="path20" />
	</g>
	<g fill="None" fill-opacity="0" stroke="#b04f1d" stroke-opacity="1" stroke-width="0.3" id="g21"
		transform="translate(-188.8241,-195.60087)">
		<path
			d="m 370,460 c 8.86,19.24 35.25,18.61 52.74,26.26 66.63,14.76 142.82,12.71 203.26,-18.26 8.97,-18.66 -2.55,-40.25 -3.02,-59.98 -3.15,-19.85 -8.22,-39.17 -12.2,-58.8 C 608.34,330.17 595.09,313.25 574,315 c -44.95,-4.83 -92.32,-3.15 -138,-2 -17.77,1.13 -43.27,4.05 -44.02,26.98 C 380.6,378.92 374.57,419.28 370,460 m 173,-83 c 17.23,0.6 33.73,-1.74 51,-1 -62.33,8.94 -128.83,6.2 -192,1 7.76,-2.3 17.49,-0.35 26,-1 -9.42,-2.31 -20.82,-0.35 -31,-1 65.96,-3.84 134.44,-3.68 201,-1 -17.54,2.22 -37.62,0.39 -55,3 m 37,69 c 6.33,0 12.67,0 19,0 -66.62,8.86 -137.05,8.18 -204,0 1.45,-1.96 4.8,-0.56 7,-1 61.57,-5.13 125.64,-2.54 188,-1 -2.28,2.72 -7.79,-0.77 -10,2 z"
			id="path21" />
	</g>
	<g fill="None" fill-opacity="0" stroke="#832c10" stroke-opacity="1" stroke-width="0.3" id="g22"
		transform="translate(-188.8241,-195.60087)">
		<path
			d="m 428,376 c 38.06,1.4 76.59,0.97 115,1 17.38,-2.61 37.46,-0.78 55,-3 -66.56,-2.68 -135.04,-2.84 -201,1 10.18,0.65 21.58,-1.31 31,1 z"
			id="path22" />
	</g>
	<g fill="None" fill-opacity="0" stroke="#cc7230" stroke-opacity="1" stroke-width="0.3" id="g23"
		transform="translate(-188.8241,-195.60087)">
		<path
			d="m 543,377 c -38.41,-0.03 -76.94,0.4 -115,-1 -8.51,0.65 -18.24,-1.3 -26,1 63.17,5.2 129.67,7.94 192,-1 -17.27,-0.74 -33.77,1.6 -51,1 z"
			id="path23" />
	</g>
	<g fill="None" fill-opacity="0" stroke="#852e10" stroke-opacity="1" stroke-width="0.3" id="g24"
		transform="translate(-188.8241,-195.60087)">
		<path d="m 402,445 c 58.5,3.56 119.1,2.11 178,1 2.21,-2.77 7.72,0.72 10,-2 -62.36,-1.54 -126.43,-4.13 -188,1 z"
			id="path24" />
	</g>
	<g fill="None" fill-opacity="0" stroke="#efd2ad" stroke-opacity="1" stroke-width="0.3" id="g25"
		transform="translate(-188.8241,-195.60087)">
		<path d="m 285,444 c 8.17,0.66 17.66,-1.33 25,1 4,0 8,0 12,0 -10.79,-3.59 -25.74,-2.29 -37,-1 z" id="path25" />
	</g>
	<g fill="None" fill-opacity="0" stroke="#c39771" stroke-opacity="1" stroke-width="0.3" id="g26"
		transform="translate(-188.8241,-195.60087)">
		<path d="m 690,444 c 8.33,0 16.67,0 25,0 -7.19,-1.68 -17.74,-1.64 -25,0 z" id="path26" />
	</g>
	<g fill="None" fill-opacity="0" stroke="#c28957" stroke-opacity="1" stroke-width="0.3" id="g27"
		transform="translate(-188.8241,-195.60087)">
		<path d="m 285,445 c 8.33,0 16.67,0 25,0 -7.34,-2.33 -16.83,-0.34 -25,-1 0,0 -0.04,1 0,1 z" id="path27" />
	</g>
	<g fill="None" fill-opacity="0" stroke="#a75223" stroke-opacity="1" stroke-width="0.3" id="g28"
		transform="translate(-188.8241,-195.60087)">
		<path
			d="m 659,448 c -5.85,10.1 -6.13,22.33 -7,34 18.5,0.67 38.32,-1.33 56,1 0.25,0.26 0,1 0,1 15.14,-2.32 31.42,-0.35 47,-1 -2.51,-10.52 -4.58,-21.34 -8.75,-31.25 -7.98,-8.31 -20.66,-6.3 -31.25,-7.75 -8.33,0 -16.67,0 -25,0 -10.54,0.54 -21.1,1.03 -31,4 m 87,26 c 1.39,0.26 0.78,2.05 1,3 -30,0 -60,0 -90,0 2.38,-7.46 0.35,-17.68 7,-23 16.11,-2.35 33.56,-4.48 50.07,-2.07 15.95,-2.41 33.14,3.56 31.93,22.07 z"
			id="path28" />
	</g>
	<g fill="None" fill-opacity="0" stroke="#ba622b" stroke-opacity="1" stroke-width="0.3" id="g29"
		transform="translate(-188.8241,-195.60087)">
		<path
			d="m 291,484 c 17.43,-2.33 36.82,-0.34 55,-1 0.26,-1.39 2.05,-0.78 3,-1 -0.42,-6.31 -1.52,-12.43 -2.33,-18.67 0.25,-4.63 -6.22,-12.41 -3.67,-14.33 -6.09,-3.02 -14.19,-2.29 -21,-4 -4,0 -8,0 -12,0 -8.33,0 -16.67,0 -25,0 -10.8,1.02 -23.71,-1.08 -31.68,7.32 -2.68,10.28 -6.57,20.2 -8.32,30.68 15.25,0.65 31.17,-1.32 46,1 m 51,-11 c 1.6,0.53 0.72,2.75 1,4 -30,0 -60,0 -90,0 0.1,-2.71 0.44,-6.04 2,-8 0,-14.37 12.44,-18.19 25,-17 12.91,-2.24 27.01,-0.82 40,0 14.32,-2.31 23.75,6.59 22,21 z"
			id="path29" />
	</g>
	<g fill="None" fill-opacity="0" stroke="#ce7433" stroke-opacity="1" stroke-width="0.3" id="g30"
		transform="translate(-188.8241,-195.60087)">
		<path
			d="m 580,446 c -58.9,1.11 -119.5,2.56 -178,-1 -2.2,0.44 -5.55,-0.96 -7,1 66.95,8.18 137.38,8.86 204,0 -6.33,0 -12.67,0 -19,0 z"
			id="path30" />
	</g>
	<g fill="None" fill-opacity="0" stroke="#671e0f" stroke-opacity="1" stroke-width="0.3" id="g31"
		transform="translate(-188.8241,-195.60087)">
		<path
			d="m 346,483 c 7.81,-0.09 15.22,-1.74 23,-2 5,15.39 3.81,34.18 6,51 45.8,8.96 92.69,13.93 141,13 2.76,-2.16 7.49,-0.45 11,-1 32.87,-0.54 64.47,-6.1 96,-12 2.41,-2.44 -0.55,-6.99 2,-9 -0.66,-7.93 0.93,-15.25 1,-23 0.61,-3.17 -1.25,-7.65 1,-10 0,-2 0,-4 0,-6 0.93,-1.22 0.83,-3.43 3,-3 1.33,0 2.67,0 4,0 -2.14,-2.08 -6.36,-0.36 -9,-2 -62.36,64.92 -173.95,67.09 -241.23,9.23 C 369.96,480.1 376.33,461.57 362,454 c -6.21,-2.11 -12.4,-4.4 -19,-5 -2.55,1.92 3.92,9.7 3.67,14.33 0.81,6.24 1.91,12.36 2.33,18.67 -0.95,0.22 -2.74,-0.39 -3,1 z"
			id="path31" />
	</g>
	<g fill="None" fill-opacity="0" stroke="#030206" stroke-opacity="1" stroke-width="0.3" id="g32"
		transform="translate(-188.8241,-195.60087)">
		<path
			d="m 255,469 c 0.67,2.61 -1.34,4.45 -1,7 29.33,0 58.67,0 88,0 0,-1 0,-2 0,-3 1.75,-14.41 -7.68,-23.31 -22,-21 -12.99,-0.82 -27.09,-2.24 -40,0 -12.56,-1.19 -25,2.63 -25,17 z"
			id="path32" />
	</g>
	<g fill="None" fill-opacity="0" stroke="#020205" stroke-opacity="1" stroke-width="0.3" id="g33"
		transform="translate(-188.8241,-195.60087)">
		<path
			d="m 664,454 c -4.4,6.31 -3.92,14.53 -5,22 19.67,0 39.33,0 59,0 8.86,-1.29 21.56,2.61 28,-2 1.21,-18.51 -15.98,-24.48 -31.93,-22.07 -16.51,-2.41 -33.96,-0.28 -50.07,2.07 z"
			id="path33" />
	</g>
	<g fill="None" fill-opacity="0" stroke="#943218" stroke-opacity="1" stroke-width="0.3" id="g34"
		transform="translate(-188.8241,-195.60087)">
		<path
			d="m 625,479 c -0.49,-3.9 1.71,-7.06 1,-11 -60.44,30.97 -136.63,33.02 -203.26,18.26 -17.49,-7.65 -43.88,-7.02 -52.74,-26.26 -2.58,-1.51 -4.59,-4.46 -7,-6 0,0 -0.57,0.18 -1,0 14.33,7.57 7.96,26.1 21.77,34.23 67.28,57.86 178.87,55.69 241.23,-9.23 z"
			id="path34" />
	</g>
	<g fill="None" fill-opacity="0" stroke="#4a1f0f" stroke-opacity="1" stroke-width="0.3" id="g35"
		transform="translate(-188.8241,-195.60087)">
		<path
			d="m 746,474 c -6.44,4.61 -19.14,0.71 -28,2 -19.67,0 -39.33,0 -59,0 1.08,-7.47 0.6,-15.69 5,-22 -6.65,5.32 -4.62,15.54 -7,23 30,0 60,0 90,0 -0.22,-0.95 0.39,-2.74 -1,-3 z"
			id="path35" />
	</g>
	<g fill="None" fill-opacity="0" stroke="#562712" stroke-opacity="1" stroke-width="0.3" id="g36"
		transform="translate(-188.8241,-195.60087)">
		<path
			d="m 342,473 c 0,1 0,2 0,3 -29.33,0 -58.67,0 -88,0 -0.34,-2.55 1.67,-4.39 1,-7 -1.56,1.96 -1.9,5.29 -2,8 30,0 60,0 90,0 -0.28,-1.25 0.6,-3.47 -1,-4 z"
			id="path36" />
	</g>
	<g fill="None" fill-opacity="0" stroke="#020101" stroke-opacity="1" stroke-width="0.3" id="g37"
		transform="translate(-188.8241,-195.60087)">
		<path
			d="m 346,483 c -18.18,0.66 -37.57,-1.33 -55,1 0.55,3.4 2.21,6.44 2,10 17.33,0 34.67,0 52,0 6.31,-6.04 17.08,-7.23 24,-13 -7.78,0.26 -15.19,1.91 -23,2 z"
			id="path37" />
	</g>
	<g fill="None" fill-opacity="0" stroke="#2e3943" stroke-opacity="1" stroke-width="0.3" id="g38"
		transform="translate(-188.8241,-195.60087)">
		<path
			d="m 345,494 c 1.42,1.67 0.89,3.96 1,6 0.46,22.88 3.8,45.04 4,68 0.34,-0.23 1,0 1,0 3.27,-11.37 15.29,-19.44 24,-27 0,-3 0,-6 0,-9 -2.19,-16.82 -1,-35.61 -6,-51 -6.92,5.77 -17.69,6.96 -24,13 z"
			id="path38" />
	</g>
	<g fill="None" fill-opacity="0" stroke="#42525c" stroke-opacity="1" stroke-width="0.3" id="g39"
		transform="translate(-188.8241,-195.60087)">
		<path
			d="m 627,484 c 8.27,0.97 15.06,6.81 23,9 2.8,1.33 7.31,1.52 6,6 16.33,0 32.67,0 49,0 -0.2,-1.87 1.62,-3.06 1,-5 -16.67,0 -33.33,0 -50,0 2.41,-7.79 -6.41,-6.04 -11.02,-7.98 -4.7,-2.41 -10.65,-2.55 -14.98,-5.02 -2.17,-0.43 -2.07,1.78 -3,3 z"
			id="path39" />
	</g>
	<g fill="None" fill-opacity="0" stroke="#010101" stroke-opacity="1" stroke-width="0.3" id="g40"
		transform="translate(-188.8241,-195.60087)">
		<path
			d="m 706,494 c 0.77,-3.33 1.57,-6.62 2,-10 -18.83,-0.67 -38.99,1.33 -57,-1 -1,0 -2,0 -3,0 -2.62,-0.42 -6.83,1.3 -8,-2 -2,0 -4,0 -6,0 -1.33,0 -2.67,0 -4,0 4.33,2.47 10.28,2.61 14.98,5.02 4.61,1.94 13.43,0.19 11.02,7.98 16.67,0 33.33,0 50,0 z"
			id="path40" />
	</g>
	<g fill="None" fill-opacity="0" stroke="#48240e" stroke-opacity="1" stroke-width="0.3" id="g41"
		transform="translate(-188.8241,-195.60087)">
		<path d="m 648,483 c -0.25,-0.27 0,-1 0,-1 -2.92,0.63 -5.26,-1.03 -8,-1 1.17,3.3 5.38,1.58 8,2 z" id="path41" />
	</g>
	<g fill="None" fill-opacity="0" stroke="#7f4424" stroke-opacity="1" stroke-width="0.3" id="g42"
		transform="translate(-188.8241,-195.60087)">
		<path
			d="m 648,483 c 1,0 2,0 3,0 19,0 38,0 57,0 -17.68,-2.33 -37.5,-0.33 -56,-1 -1.33,0 -2.67,0 -4,0 0,0 -0.25,0.73 0,1 z"
			id="path42" />
	</g>
	<g fill="None" fill-opacity="0" stroke="#2c1005" stroke-opacity="1" stroke-width="0.3" id="g43"
		transform="translate(-188.8241,-195.60087)">
		<path d="m 708,484 c 0,0 0.25,-0.74 0,-1 -19,0 -38,0 -57,0 18.01,2.33 38.17,0.33 57,1 z" id="path43" />
	</g>
	<g fill="None" fill-opacity="0" stroke="#9eafb7" stroke-opacity="1" stroke-width="0.3" id="g44"
		transform="translate(-188.8241,-195.60087)">
		<path
			d="m 627,490 c -0.61,3.17 1.25,7.65 -1,10 -0.07,7.75 -1.66,15.07 -1,23 -1.55,10.01 -1.56,19.56 9.08,23.92 6.28,5.89 13.58,11.83 15.92,20.08 -0.18,0.74 0.05,1.91 1,2 0.56,-24.52 3.81,-48.37 4,-73 -1.51,-1.36 -4.46,-0.49 -5,-3 -7.94,-2.19 -14.73,-8.03 -23,-9 0,2 0,4 0,6 z"
			id="path44" />
	</g>
	<g fill="None" fill-opacity="0" stroke="#74554f" stroke-opacity="1" stroke-width="0.3" id="g45"
		transform="translate(-188.8241,-195.60087)">
		<path d="m 626,500 c 2.25,-2.35 0.39,-6.83 1,-10 -2.25,2.35 -0.39,6.83 -1,10 z" id="path45" />
	</g>
	<g fill="None" fill-opacity="0" stroke="#647683" stroke-opacity="1" stroke-width="0.3" id="g46"
		transform="translate(-188.8241,-195.60087)">
		<path
			d="m 651,569 c 0,1 0,2 0,3 0,0.5 0,1.5 0,2 3.1,7.56 7.68,15.33 9.33,23.67 2.85,8.36 -5.74,16.43 -6.33,23.33 15.02,-2.11 30.84,-9.81 30.67,-27.33 6.46,-31.66 14.08,-62.98 20.33,-94.67 -16.33,0 -32.67,0 -49,0 1.31,-4.48 -3.2,-4.67 -6,-6 0.54,2.51 3.49,1.64 5,3 -0.19,24.63 -3.44,48.48 -4,73 z"
			id="path46" />
	</g>
	<g fill="None" fill-opacity="0" stroke="#475b66" stroke-opacity="1" stroke-width="0.3" id="g47"
		transform="translate(-188.8241,-195.60087)">
		<path
			d="m 294,498 c 16.75,2.97 35.28,-0.97 52,2 -0.11,-2.04 0.42,-4.33 -1,-6 -17.33,0 -34.67,0 -52,0 -0.43,1.6 1.37,2.46 1,4 z"
			id="path47" />
	</g>
	<g fill="None" fill-opacity="0" stroke="#8397a3" stroke-opacity="1" stroke-width="0.3" id="g48"
		transform="translate(-188.8241,-195.60087)">
		<path
			d="m 350,622 c -17.48,-12.61 -10.18,-34.5 -1,-49 0.11,-1 -0.47,-2.73 1,-3 0,-0.5 0,-1.5 0,-2 -0.2,-22.96 -3.54,-45.12 -4,-68 -16.72,-2.97 -35.25,0.97 -52,-2 7.71,32.55 14.66,65.35 22.01,97.99 C 315.62,614.61 336,618.58 350,622 Z"
			id="path48" />
	</g>
	<g fill="None" fill-opacity="0" stroke="#adaca7" stroke-opacity="1" stroke-width="0.3" id="g49"
		transform="translate(-188.8241,-195.60087)">
		<path
			d="m 623,532 c 0,2.67 0,5.33 0,8 10.43,6.35 20.39,16.91 27,27 -2.34,-8.25 -9.64,-14.19 -15.92,-20.08 -10.64,-4.36 -10.63,-13.91 -9.08,-23.92 -2.55,2.01 0.41,6.56 -2,9 z"
			id="path49" />
	</g>
	<g fill="None" fill-opacity="0" stroke="#eddec5" stroke-opacity="1" stroke-width="0.3" id="g50"
		transform="translate(-188.8241,-195.60087)">
		<path
			d="m 375,541 c 6.82,0.17 14.71,0.86 22,2 68.75,11.55 143.48,10.69 212,-1 3.75,-2.54 9.26,-1.96 14,-2 0,-2.67 0,-5.33 0,-8 -31.53,5.9 -63.13,11.46 -96,12 -2.76,2.16 -7.49,0.45 -11,1 -48.31,0.93 -95.2,-4.04 -141,-13 0,3 0,6 0,9 z"
			id="path50" />
	</g>
	<g fill="None" fill-opacity="0" stroke="#be9a75" stroke-opacity="1" stroke-width="0.3" id="g51"
		transform="translate(-188.8241,-195.60087)">
		<path
			d="m 609,542 c 18.06,-5.11 32.36,14.2 40,28 0.13,0.27 0.97,0.65 1,1 0.05,0.5 0,1 0,1 0.25,0.25 1,0 1,0 0,-1 0,-2 0,-3 -0.95,-0.09 -1.18,-1.26 -1,-2 -6.61,-10.09 -16.57,-20.65 -27,-27 -4.74,0.04 -10.25,-0.54 -14,2 z"
			id="path51" />
	</g>
	<g fill="None" fill-opacity="0" stroke="#752515" stroke-opacity="1" stroke-width="0.3" id="g52"
		transform="translate(-188.8241,-195.60087)">
		<path
			d="m 351,568 c 0.74,-0.18 1.91,0.05 2,1 9.71,-0.06 24.4,11.08 30.92,1.92 3.58,-9.59 9.67,-18.27 13.08,-27.92 -7.29,-1.14 -15.18,-1.83 -22,-2 -8.71,7.56 -20.73,15.63 -24,27 z"
			id="path52" />
	</g>
	<g fill="None" fill-opacity="0" stroke="#d3782f" stroke-opacity="1" stroke-width="0.3" id="g53"
		transform="translate(-188.8241,-195.60087)">
		<path
			d="m 609,542 c -68.52,11.69 -143.25,12.55 -212,1 -3.41,9.65 -9.5,18.33 -13.08,27.92 -6.52,9.16 -21.21,-1.98 -30.92,-1.92 -1.41,-0.51 -2.15,0.81 -2,2 94.31,29.44 204.27,32.24 298,-1 -7.64,-13.8 -21.94,-33.11 -40,-28 z"
			id="path53" />
	</g>
	<g fill="None" fill-opacity="0" stroke="#ab8772" stroke-opacity="1" stroke-width="0.3" id="g54"
		transform="translate(-188.8241,-195.60087)">
		<path d="m 516,545 c 3.51,-0.55 8.24,1.16 11,-1 -3.51,0.55 -8.24,-1.16 -11,1 z" id="path54" />
	</g>
	<g fill="None" fill-opacity="0" stroke="#6e473f" stroke-opacity="1" stroke-width="0.3" id="g55"
		transform="translate(-188.8241,-195.60087)">
		<path
			d="m 350,570 c 0.66,7.83 -1.33,16.99 1,24 0,-7.67 0,-15.33 0,-23 -0.15,-1.19 0.59,-2.51 2,-2 -0.09,-0.95 -1.26,-1.18 -2,-1 0,0 -0.66,-0.23 -1,0 0,0.5 0,1.5 0,2 z"
			id="path55" />
	</g>
	<g fill="None" fill-opacity="0" stroke="#5e585b" stroke-opacity="1" stroke-width="0.3" id="g56"
		transform="translate(-188.8241,-195.60087)">
		<path
			d="m 349,573 c 0.1,10.07 -0.64,20.96 2,30 0.03,-0.5 0,-1 0,-1 0,-2.67 0,-5.33 0,-8 -2.33,-7.01 -0.34,-16.17 -1,-24 -1.47,0.27 -0.89,2 -1,3 z"
			id="path56" />
	</g>
	<g fill="None" fill-opacity="0" stroke="#872c18" stroke-opacity="1" stroke-width="0.3" id="g57"
		transform="translate(-188.8241,-195.60087)">
		<path
			d="m 351,571 c 0,7.67 0,15.33 0,23 0,2.67 0,5.33 0,8 10.23,20.93 38.57,19.86 58.01,26.99 73.32,15.14 155.88,14.38 224.99,-12.99 18.92,-6.16 12.9,-29.98 16,-45 -0.03,-0.35 -0.87,-0.73 -1,-1 -93.73,33.24 -203.69,30.44 -298,1 z"
			id="path57" />
	</g>
	<g fill="None" fill-opacity="0" stroke="#5b2a22" stroke-opacity="1" stroke-width="0.3" id="g58"
		transform="translate(-188.8241,-195.60087)">
		<path
			d="m 634,616 c 7.8,-1.23 13.07,-8.18 15,-15 0.52,-2.19 -1.14,-5.62 1,-7 0,-2.67 0,-5.33 0,-8 0,-4.67 0,-9.33 0,-14 0,0 0.05,-0.5 0,-1 -3.1,15.02 2.92,38.84 -16,45 z"
			id="path58" />
	</g>
	<g fill="None" fill-opacity="0" stroke="#5c4c48" stroke-opacity="1" stroke-width="0.3" id="g59"
		transform="translate(-188.8241,-195.60087)">
		<path d="m 650,586 c 2.19,-3.09 0.43,-8.16 1,-12 0,-0.5 0,-1.5 0,-2 0,0 -0.75,0.25 -1,0 0,4.67 0,9.33 0,14 z"
			id="path59" />
	</g>
	<g fill="None" fill-opacity="0" stroke="#566873" stroke-opacity="1" stroke-width="0.3" id="g60"
		transform="translate(-188.8241,-195.60087)">
		<path
			d="m 350,622 c 2.6,2.16 6.52,3.5 10,4 1.16,-1.49 3.34,-2.02 5,-3 -0.56,-1.26 -2.85,-1.25 -3,-3 -6.31,-2.79 -11.73,-9.72 -11,-17 -2.64,-9.04 -1.9,-19.93 -2,-30 -9.18,14.5 -16.48,36.39 1,49 z"
			id="path60" />
	</g>
	<g fill="None" fill-opacity="0" stroke="#42525a" stroke-opacity="1" stroke-width="0.3" id="g61"
		transform="translate(-188.8241,-195.60087)">
		<path
			d="m 650,586 c 0,2.67 0,5.33 0,8 -0.59,2.84 1.22,6.98 -1,9 -4.37,25.58 -38.06,22.83 -57.02,30.98 C 516.74,650.47 433.39,646.61 362,620 c 0.15,1.75 2.44,1.74 3,3 -1.66,0.98 -3.84,1.51 -5,3 26.47,10.78 55.85,14.87 84,21 34.58,0.59 72.8,4.42 108,-1 0,1 0,2 0,3 1.47,-0.27 0.89,-2 1,-3 34.78,-4.19 68.64,-12.43 101,-25 0.59,-6.9 9.18,-14.97 6.33,-23.33 -1.65,-8.34 -6.23,-16.11 -9.33,-23.67 -0.57,3.84 1.19,8.91 -1,12 z"
			id="path61" />
	</g>
	<g fill="None" fill-opacity="0" stroke="#463b3d" stroke-opacity="1" stroke-width="0.3" id="g62"
		transform="translate(-188.8241,-195.60087)">
		<path d="m 649,601 c 0.03,0.5 -0.02,1.5 0,2 2.22,-2.02 0.41,-6.16 1,-9 -2.14,1.38 -0.48,4.81 -1,7 z"
			id="path62" />
	</g>
	<g fill="None" fill-opacity="0" stroke="#060303" stroke-opacity="1" stroke-width="0.3" id="g63"
		transform="translate(-188.8241,-195.60087)">
		<path
			d="M 634,616 C 564.89,643.37 482.33,644.13 409.01,628.99 389.57,621.86 361.23,622.93 351,602 c 0,0 0.03,0.5 0,1 -0.73,7.28 4.69,14.21 11,17 71.39,26.61 154.74,30.47 229.98,13.98 18.96,-8.15 52.65,-5.4 57.02,-30.98 -0.02,-0.5 0.03,-1.5 0,-2 -1.93,6.82 -7.2,13.77 -15,15 z"
			id="path63" />
	</g>
	<g fill="None" fill-opacity="0" stroke="#000000" stroke-opacity="1" stroke-width="0.3" id="g64"
		transform="translate(-188.8241,-195.60087)">
		<path
			d="m 444,647 c 1.59,9.62 1.99,19.51 4,29 -0.15,-9.85 10.87,-6.57 18,-7 25,0 50,0 75,0 11.7,-1.62 1.49,12.92 6,18 2.79,-12.36 4.3,-25.1 5,-38 0,-1 0,-2 0,-3 -35.2,5.42 -73.42,1.59 -108,1 z"
			id="path64" />
	</g>
	<g fill="None" fill-opacity="0" stroke="#131c27" stroke-opacity="1" stroke-width="0.3" id="g65"
		transform="translate(-188.8241,-195.60087)">
		<path
			d="m 448,676 c -0.71,3.95 1.48,7.13 1,11 32.16,2.33 65.42,0.34 98,1 0,0 -0.15,-0.55 0,-1 -4.51,-5.08 5.7,-19.62 -6,-18 -25,0 -50,0 -75,0 -7.13,0.43 -18.15,-2.85 -18,7 z"
			id="path65" />
	</g>
	<g fill="None" fill-opacity="0" stroke="#3a4754" stroke-opacity="1" stroke-width="0.3" id="g66"
		transform="translate(-188.8241,-195.60087)">
		<path
			d="m 452,716 c -0.3,1.25 -1.83,1.71 -2,3 32,0 64,0 96,0 -5.17,-9.82 1.57,-20.65 1,-31 -32.58,-0.66 -65.84,1.33 -98,-1 0.63,9.78 3.82,18.87 3,29 z"
			id="path66" />
	</g>
	<g fill="None" fill-opacity="0" stroke="#51606e" stroke-opacity="1" stroke-width="0.3" id="g67"
		transform="translate(-188.8241,-195.60087)">
		<path
			d="m 412,732 c 3.28,-0.2 0.31,1.61 -1,2 10.4,10.17 23.68,17.32 35,26 -34.67,0 -69.33,0 -104,0 -0.53,-1.28 0.97,-1.86 1,-3 -1.83,0.49 -2.18,2.35 -2,4 35,0 70,0 105,0 38.27,-1.67 79.81,-1.67 118,0 29.67,0 59.33,0 89,0 0.28,-0.67 1.48,-1.78 0,-2 -28.27,1.67 -59.81,1.67 -88,0 8.31,-2.48 15.22,-8.93 23,-13 1.79,-3.19 6.47,-3.48 8,-7 -2.84,-1.76 -6.51,-3.25 -10,-4 -1.81,0.14 -4.08,-0.44 -5,-2 -11.65,-4.8 -23.38,-9.11 -35,-14 -32,0 -64,0 -96,0 0.17,-1.29 1.7,-1.75 2,-3 -11.96,8.1 -26.52,12.69 -40,16 z"
			id="path67" />
	</g>
	<g fill="None" fill-opacity="0" stroke="#101a23" stroke-opacity="1" stroke-width="0.3" id="g68"
		transform="translate(-188.8241,-195.60087)">
		<path
			d="m 294,765 c 126.37,19.81 267.34,24.28 394,2 -12.08,-9.76 -25.26,-20.11 -38.99,-27.01 -19.96,-2.2 -39.74,-5.09 -60.01,-5.99 -1,0.11 -2.73,-0.47 -3,1 3.49,0.75 7.16,2.24 10,4 1.28,0.28 3.5,-0.76 4,1 17.38,6.29 37.52,11.23 53,19 1.48,0.22 0.28,1.33 0,2 1.6,0.53 0.72,2.75 1,4 -103.85,2.27 -208.74,0.38 -313,1 0,-1.67 0,-3.33 0,-5 -0.18,-1.65 0.17,-3.51 2,-4 22.91,-6.73 45.2,-15.74 68,-23 1.31,-0.39 4.28,-2.2 1,-2 -23.11,1.94 -46,4.7 -69,7 -20.24,-1.35 -33.31,15.91 -49,26 z"
			id="path68" />
	</g>
	<g fill="None" fill-opacity="0" stroke="#394243" stroke-opacity="1" stroke-width="0.3" id="g69"
		transform="translate(-188.8241,-195.60087)">
		<path d="m 586,735 c 0.27,-1.47 2,-0.89 3,-1 -1.7,-2.19 -5.48,-0.44 -8,-1 0.92,1.56 3.19,2.14 5,2 z"
			id="path69" />
	</g>
	<g fill="None" fill-opacity="0" stroke="#93a4ab" stroke-opacity="1" stroke-width="0.3" id="g70"
		transform="translate(-188.8241,-195.60087)">
		<path
			d="m 343,757 c -0.03,1.14 -1.53,1.72 -1,3 34.67,0 69.33,0 104,0 -11.32,-8.68 -24.6,-15.83 -35,-26 -22.8,7.26 -45.09,16.27 -68,23 z"
			id="path70" />
	</g>
	<g fill="None" fill-opacity="0" stroke="#71818b" stroke-opacity="1" stroke-width="0.3" id="g71"
		transform="translate(-188.8241,-195.60087)">
		<path d="m 588,746 c 4.29,-1.52 7.14,-6.13 12,-6 -0.5,-1.76 -2.72,-0.72 -4,-1 -1.53,3.52 -6.21,3.81 -8,7 z"
			id="path71" />
	</g>
	<g fill="None" fill-opacity="0" stroke="#9ba9b0" stroke-opacity="1" stroke-width="0.3" id="g72"
		transform="translate(-188.8241,-195.60087)">
		<path
			d="m 588,746 c -7.78,4.07 -14.69,10.52 -23,13 28.19,1.67 59.73,1.67 88,0 -15.48,-7.77 -35.62,-12.71 -53,-19 -4.86,-0.13 -7.71,4.48 -12,6 z"
			id="path72" />
	</g>
	<g fill="None" fill-opacity="0" stroke="#2f363c" stroke-opacity="1" stroke-width="0.3" id="g73"
		transform="translate(-188.8241,-195.60087)">
		<path d="m 446,761 c 39.33,0 78.67,0 118,0 -38.19,-1.67 -79.73,-1.67 -118,0 z" id="path73" />
	</g>
	<g fill="None" fill-opacity="0" stroke="#000103" stroke-opacity="1" stroke-width="0.3" id="g74"
		transform="translate(-188.8241,-195.60087)">
		<path
			d="m 653,761 c -29.67,0 -59.33,0 -89,0 -39.33,0 -78.67,0 -118,0 -35,0 -70,0 -105,0 0,1.67 0,3.33 0,5 104.26,-0.62 209.15,1.27 313,-1 -0.28,-1.25 0.6,-3.47 -1,-4 z"
			id="path74" />
	</g>
	<g fill="None" fill-opacity="0" stroke="#27323c" stroke-opacity="1" stroke-width="0.3" id="g75"
		transform="translate(-188.8241,-195.60087)">
		<path
			d="m 250,803 c 160.33,0 320.67,0 481,0 2.18,-9.44 -13.35,-13.51 -19.25,-19.75 -7.86,-5.49 -15.39,-11.91 -23.75,-16.25 -126.66,22.28 -267.63,17.81 -394,-2 -14.65,10.67 -28.97,22.28 -44,32 0,2 0,4 0,6 z"
			id="path75" />
	</g>
	<g fill="None" fill-opacity="0" stroke="#6b706c" stroke-opacity="1" stroke-width="0.3" id="g76"
		transform="translate(-188.8241,-195.60087)">
		<path d="m 731,803 c -160.33,0 -320.67,0 -481,0 159.2,1.67 321.73,1.66 481,0 z" id="path76" />
	</g>
	<g fill="#daac79" fill-opacity="1" stroke="None" id="g78" transform="translate(-188.8241,-195.60087)">
		<path d="m 482,197 c 13,0 26,0 39,0 -11.86,-1.67 -27.07,-1.66 -39,0 z" id="path78" />
	</g>
	<g fill="#d37a31" fill-opacity="1" stroke="None" id="g79" transform="translate(-188.8241,-195.60087)">
		<path
			d="m 407,272 c 3.12,-2.03 2.02,5.02 3,7 3.9,1.81 2.48,-5.98 5,-8 8.38,-23.37 6.07,-64.48 40.02,-64.98 31.74,-4.47 65.88,-4.31 97.05,1.91 29.87,7.56 23.45,47.55 34.93,70.07 3.82,2.76 3.03,-5.6 5,-7 -4.37,-21.21 -5.65,-43.81 -16,-63 -15.84,-10.46 -36.02,-10.31 -55,-11 -13,0 -26,0 -39,0 -20.6,1.86 -45.85,-1.2 -60.75,14.25 C 412.83,230.2 412.1,251.9 407,272 Z"
			id="path79" />
	</g>
	<g fill="#b1511d" fill-opacity="1" stroke="None" id="g80" transform="translate(-188.8241,-195.60087)">
		<path
			d="m 415,271 c 41.21,-52.37 138.33,-52.01 172,7 -11.48,-22.52 -5.06,-62.51 -34.93,-70.07 -31.17,-6.22 -65.31,-6.38 -97.05,-1.91 -33.95,0.5 -31.64,41.61 -40.02,64.98 z"
			id="path80" />
	</g>
	<g fill="#f3d6ae" fill-opacity="1" stroke="None" id="g81" transform="translate(-188.8241,-195.60087)">
		<path
			d="m 576,208 c 10.35,19.19 11.63,41.79 16,63 0.15,0.45 0,1.5 0,2 2.03,1.77 0.53,5.48 1,8 2.15,-12.84 -1.63,-27.35 -5,-40 -2.78,-10.74 -2.59,-27.52 -12,-33 z"
			id="path81" />
	</g>
	<g fill="#99351a" fill-opacity="1" stroke="None" id="g82" transform="translate(-188.8241,-195.60087)">
		<path
			d="m 415,271 c -2.52,2.02 -1.1,9.81 -5,8 -0.23,3.36 3.84,4.34 4,8 51.12,5.81 104.71,1.82 157,3 7.51,0.05 18.21,0.35 21,-8 0,-3 0,-6 0,-9 0,-0.5 0.15,-1.55 0,-2 -1.97,1.4 -1.18,9.76 -5,7 -33.67,-59.01 -130.79,-59.37 -172,-7 z"
			id="path82" />
	</g>
	<g fill="#662917" fill-opacity="1" stroke="None" id="g83" transform="translate(-188.8241,-195.60087)">
		<path
			d="m 407,272 c -0.05,5.81 -1.17,12.9 4.93,16.07 4.59,3.09 13.34,-0.25 16.07,3.93 7.76,-2.93 15.82,1.28 24,0 8.83,0.66 18.99,-1.33 27,1 14.33,0 28.67,0 43,0 6.92,-1.64 17.15,-1.68 24,0 0.32,0.24 1,0 1,0 7.27,-1.07 16.6,-2.44 24,-1 0,-0.5 0.19,-1.92 0,-2 -52.29,-1.18 -105.88,2.81 -157,-3 -0.16,-3.66 -4.23,-4.64 -4,-8 -0.98,-1.98 0.12,-9.03 -3,-7 z"
			id="path83" />
	</g>
	<g fill="#a27866" fill-opacity="1" stroke="None" id="g84" transform="translate(-188.8241,-195.60087)">
		<path d="m 592,282 c 0.12,-0.26 0.78,-0.7 1,-1 -0.47,-2.52 1.03,-6.23 -1,-8 0,3 0,6 0,9 z" id="path84" />
	</g>
	<g fill="#08080e" fill-opacity="1" stroke="None" id="g85" transform="translate(-188.8241,-195.60087)">
		<path
			d="m 428,292 c 0,1 0,2 0,3 5.09,4.54 16.49,0.76 24,2 0,-1.33 0,-2.67 0,-4 0,-0.5 0,-1 0,-1 -8.18,1.28 -16.24,-2.93 -24,0 z"
			id="path85" />
	</g>
	<g fill="#040306" fill-opacity="1" stroke="None" id="g86" transform="translate(-188.8241,-195.60087)">
		<path
			d="m 547,293 c 0,1.67 0,3.33 0,5 7.85,-0.87 16.76,-0.28 24,-2 0,-1.33 0,-2.67 0,-4 -7.4,-1.44 -16.73,-0.07 -24,1 z"
			id="path86" />
	</g>
	<g fill="#9b7260" fill-opacity="1" stroke="None" id="g87" transform="translate(-188.8241,-195.60087)">
		<path d="m 452,293 c 9,0 18,0 27,0 -8.01,-2.33 -18.17,-0.34 -27,-1 0,0 0,0.5 0,1 z" id="path87" />
	</g>
	<g fill="#8e6757" fill-opacity="1" stroke="None" id="g88" transform="translate(-188.8241,-195.60087)">
		<path d="m 522,293 c 8,0 16,0 24,0 -6.85,-1.68 -17.08,-1.64 -24,0 z" id="path88" />
	</g>
	<g fill="#556d77" fill-opacity="1" stroke="None" id="g90" transform="translate(-188.8241,-195.60087)">
		<path
			d="m 547,306 c 0.25,-0.25 1,0 1,0 6.01,0.43 15.86,-1.16 22,1 1,0 2,0 3,0 0.12,-3.79 -0.41,-8.01 -2,-11 -7.24,1.72 -16.15,1.13 -24,2 0,-1.67 0,-3.33 0,-5 0,0 -0.68,0.24 -1,0 -0.16,4.49 1.72,8.39 1,13 z"
			id="path90" />
	</g>
	<g fill="#586b74" fill-opacity="1" stroke="None" id="g91" transform="translate(-188.8241,-195.60087)">
		<path
			d="m 426,307 c 8.35,1 17.74,-1.55 25,0 0.32,-0.24 1,0 1,0 0,-3.33 0,-6.67 0,-10 -7.51,-1.24 -18.91,2.54 -24,-2 -1.58,3.28 -1.59,8.04 -2,12 z"
			id="path91" />
	</g>
	<g fill="#60625f" fill-opacity="1" stroke="None" id="g92" transform="translate(-188.8241,-195.60087)">
		<path d="m 548,306 c 6.42,2.29 14.82,0.36 22,1 -6.14,-2.16 -15.99,-0.57 -22,-1 z" id="path92" />
	</g>
	<g fill="#77624b" fill-opacity="1" stroke="None" id="g93" transform="translate(-188.8241,-195.60087)">
		<path d="m 426,307 c 0,0 0,0.5 0,1 0,0.5 0,1 0,1 7.85,-2.2 17.61,0.44 25,-2 -7.26,-1.55 -16.65,1 -25,0 z"
			id="path93" />
	</g>
	<g fill="#80674d" fill-opacity="1" stroke="None" id="g94" transform="translate(-188.8241,-195.60087)">
		<path
			d="m 547,307 c 8.18,1.32 18.51,1.85 26,1 0,0 -0.05,-0.51 0,-1 -1,0 -2,0 -3,0 -7.18,-0.64 -15.58,1.29 -22,-1 0,0 -0.75,-0.25 -1,0 0,0 -0.24,0.8 0,1 z"
			id="path94" />
	</g>
	<g fill="#d37c33" fill-opacity="1" stroke="None" id="g95" transform="translate(-188.8241,-195.60087)">
		<path
			d="m 426,309 c -4.45,1.47 -9.3,1.42 -14,2 -29.53,3.25 -28.27,39.45 -35.01,60.99 -5.25,27.18 -10.31,54.43 -13.99,82.01 2.41,1.54 4.42,4.49 7,6 4.57,-40.72 10.6,-81.08 21.98,-120.02 0.75,-22.93 26.25,-25.85 44.02,-26.98 45.68,-1.15 93.05,-2.83 138,2 21.09,-1.75 34.34,15.17 36.78,34.22 3.98,19.63 9.05,38.95 12.2,58.8 0.47,19.73 11.99,41.32 3.02,59.98 0.71,3.94 -1.49,7.1 -1,11 2.64,1.64 6.86,-0.08 9,2 2,0 4,0 6,0 2.74,-0.03 5.08,1.63 8,1 1.33,0 2.67,0 4,0 0.87,-11.67 1.15,-23.9 7,-34 -7.6,-1.72 -22.37,11.64 -23.02,-0.98 -5.09,-38.2 -13.65,-75.52 -22.2,-112.8 C 610.59,314.6 589.56,309.88 573,308 c -7.49,0.85 -17.82,0.32 -26,-1 -31.67,0 -63.33,0 -95,0 0,0 -0.68,-0.24 -1,0 -7.39,2.44 -17.15,-0.2 -25,2 z"
			id="path95" />
	</g>
	<g fill="#d1a571" fill-opacity="1" stroke="None" id="g96" transform="translate(-188.8241,-195.60087)">
		<path d="m 412,311 c 4.7,-0.58 9.55,-0.53 14,-2 0,0 0,-0.5 0,-1 -4.31,1.99 -10.18,0.38 -14,3 z" id="path96" />
	</g>
	<g fill="#b04f1d" fill-opacity="1" stroke="None" id="g97" transform="translate(-188.8241,-195.60087)">
		<path
			d="m 370,460 c 8.86,19.24 35.25,18.61 52.74,26.26 66.63,14.76 142.82,12.71 203.26,-18.26 8.97,-18.66 -2.55,-40.25 -3.02,-59.98 -3.15,-19.85 -8.22,-39.17 -12.2,-58.8 C 608.34,330.17 595.09,313.25 574,315 c -44.95,-4.83 -92.32,-3.15 -138,-2 -17.77,1.13 -43.27,4.05 -44.02,26.98 C 380.6,378.92 374.57,419.28 370,460 m 173,-83 c 17.23,0.6 33.73,-1.74 51,-1 -62.33,8.94 -128.83,6.2 -192,1 7.76,-2.3 17.49,-0.35 26,-1 -9.42,-2.31 -20.82,-0.35 -31,-1 65.96,-3.84 134.44,-3.68 201,-1 -17.54,2.22 -37.62,0.39 -55,3 m 37,69 c 6.33,0 12.67,0 19,0 -66.62,8.86 -137.05,8.18 -204,0 1.45,-1.96 4.8,-0.56 7,-1 61.57,-5.13 125.64,-2.54 188,-1 -2.28,2.72 -7.79,-0.77 -10,2 z"
			id="path97" />
	</g>
	<g fill="#832c10" fill-opacity="1" stroke="None" id="g98" transform="translate(-188.8241,-195.60087)">
		<path
			d="m 428,376 c 38.06,1.4 76.59,0.97 115,1 17.38,-2.61 37.46,-0.78 55,-3 -66.56,-2.68 -135.04,-2.84 -201,1 10.18,0.65 21.58,-1.31 31,1 z"
			id="path98" />
	</g>
	<g fill="#cc7230" fill-opacity="1" stroke="None" id="g99" transform="translate(-188.8241,-195.60087)">
		<path
			d="m 543,377 c -38.41,-0.03 -76.94,0.4 -115,-1 -8.51,0.65 -18.24,-1.3 -26,1 63.17,5.2 129.67,7.94 192,-1 -17.27,-0.74 -33.77,1.6 -51,1 z"
			id="path99" />
	</g>
	<g fill="#852e10" fill-opacity="1" stroke="None" id="g100" transform="translate(-188.8241,-195.60087)">
		<path d="m 402,445 c 58.5,3.56 119.1,2.11 178,1 2.21,-2.77 7.72,0.72 10,-2 -62.36,-1.54 -126.43,-4.13 -188,1 z"
			id="path100" />
	</g>
	<g fill="#efd2ad" fill-opacity="1" stroke="None" id="g101" transform="translate(-188.8241,-195.60087)">
		<path d="m 285,444 c 8.17,0.66 17.66,-1.33 25,1 4,0 8,0 12,0 -10.79,-3.59 -25.74,-2.29 -37,-1 z" id="path101" />
	</g>
	<g fill="#c39771" fill-opacity="1" stroke="None" id="g102" transform="translate(-188.8241,-195.60087)">
		<path d="m 690,444 c 8.33,0 16.67,0 25,0 -7.19,-1.68 -17.74,-1.64 -25,0 z" id="path102" />
	</g>
	<g fill="#c28957" fill-opacity="1" stroke="None" id="g103" transform="translate(-188.8241,-195.60087)">
		<path d="m 285,445 c 8.33,0 16.67,0 25,0 -7.34,-2.33 -16.83,-0.34 -25,-1 0,0 -0.04,1 0,1 z" id="path103" />
	</g>
	<g fill="#a75223" fill-opacity="1" stroke="None" id="g104" transform="translate(-188.8241,-195.60087)">
		<path
			d="m 659,448 c -5.85,10.1 -6.13,22.33 -7,34 18.5,0.67 38.32,-1.33 56,1 0.25,0.26 0,1 0,1 15.14,-2.32 31.42,-0.35 47,-1 -2.51,-10.52 -4.58,-21.34 -8.75,-31.25 -7.98,-8.31 -20.66,-6.3 -31.25,-7.75 -8.33,0 -16.67,0 -25,0 -10.54,0.54 -21.1,1.03 -31,4 m 87,26 c 1.39,0.26 0.78,2.05 1,3 -30,0 -60,0 -90,0 2.38,-7.46 0.35,-17.68 7,-23 16.11,-2.35 33.56,-4.48 50.07,-2.07 15.95,-2.41 33.14,3.56 31.93,22.07 z"
			id="path104" />
	</g>
	<g fill="#ba622b" fill-opacity="1" stroke="None" id="g105" transform="translate(-188.8241,-195.60087)">
		<path
			d="m 291,484 c 17.43,-2.33 36.82,-0.34 55,-1 0.26,-1.39 2.05,-0.78 3,-1 -0.42,-6.31 -1.52,-12.43 -2.33,-18.67 0.25,-4.63 -6.22,-12.41 -3.67,-14.33 -6.09,-3.02 -14.19,-2.29 -21,-4 -4,0 -8,0 -12,0 -8.33,0 -16.67,0 -25,0 -10.8,1.02 -23.71,-1.08 -31.68,7.32 -2.68,10.28 -6.57,20.2 -8.32,30.68 15.25,0.65 31.17,-1.32 46,1 m 51,-11 c 1.6,0.53 0.72,2.75 1,4 -30,0 -60,0 -90,0 0.1,-2.71 0.44,-6.04 2,-8 0,-14.37 12.44,-18.19 25,-17 12.91,-2.24 27.01,-0.82 40,0 14.32,-2.31 23.75,6.59 22,21 z"
			id="path105" />
	</g>
	<g fill="#ce7433" fill-opacity="1" stroke="None" id="g106" transform="translate(-188.8241,-195.60087)">
		<path
			d="m 580,446 c -58.9,1.11 -119.5,2.56 -178,-1 -2.2,0.44 -5.55,-0.96 -7,1 66.95,8.18 137.38,8.86 204,0 -6.33,0 -12.67,0 -19,0 z"
			id="path106" />
	</g>
	<g fill="#671e0f" fill-opacity="1" stroke="None" id="g107" transform="translate(-188.8241,-195.60087)">
		<path
			d="m 346,483 c 7.81,-0.09 15.22,-1.74 23,-2 5,15.39 3.81,34.18 6,51 45.8,8.96 92.69,13.93 141,13 2.76,-2.16 7.49,-0.45 11,-1 32.87,-0.54 64.47,-6.1 96,-12 2.41,-2.44 -0.55,-6.99 2,-9 -0.66,-7.93 0.93,-15.25 1,-23 0.61,-3.17 -1.25,-7.65 1,-10 0,-2 0,-4 0,-6 0.93,-1.22 0.83,-3.43 3,-3 1.33,0 2.67,0 4,0 -2.14,-2.08 -6.36,-0.36 -9,-2 -62.36,64.92 -173.95,67.09 -241.23,9.23 C 369.96,480.1 376.33,461.57 362,454 c -6.21,-2.11 -12.4,-4.4 -19,-5 -2.55,1.92 3.92,9.7 3.67,14.33 0.81,6.24 1.91,12.36 2.33,18.67 -0.95,0.22 -2.74,-0.39 -3,1 z"
			id="path107" />
	</g>
	<g fill="#030206" fill-opacity="1" stroke="None" id="g108" transform="translate(-188.8241,-195.60087)">
		<path
			d="m 255,469 c 0.67,2.61 -1.34,4.45 -1,7 29.33,0 58.67,0 88,0 0,-1 0,-2 0,-3 1.75,-14.41 -7.68,-23.31 -22,-21 -12.99,-0.82 -27.09,-2.24 -40,0 -12.56,-1.19 -25,2.63 -25,17 z"
			id="path108" />
	</g>
	<g fill="#020205" fill-opacity="1" stroke="None" id="g109" transform="translate(-188.8241,-195.60087)">
		<path
			d="m 664,454 c -4.4,6.31 -3.92,14.53 -5,22 19.67,0 39.33,0 59,0 8.86,-1.29 21.56,2.61 28,-2 1.21,-18.51 -15.98,-24.48 -31.93,-22.07 -16.51,-2.41 -33.96,-0.28 -50.07,2.07 z"
			id="path109" />
	</g>
	<g fill="#943218" fill-opacity="1" stroke="None" id="g110" transform="translate(-188.8241,-195.60087)">
		<path
			d="m 625,479 c -0.49,-3.9 1.71,-7.06 1,-11 -60.44,30.97 -136.63,33.02 -203.26,18.26 -17.49,-7.65 -43.88,-7.02 -52.74,-26.26 -2.58,-1.51 -4.59,-4.46 -7,-6 0,0 -0.57,0.18 -1,0 14.33,7.57 7.96,26.1 21.77,34.23 67.28,57.86 178.87,55.69 241.23,-9.23 z"
			id="path110" />
	</g>
	<g fill="#4a1f0f" fill-opacity="1" stroke="None" id="g111" transform="translate(-188.8241,-195.60087)">
		<path
			d="m 746,474 c -6.44,4.61 -19.14,0.71 -28,2 -19.67,0 -39.33,0 -59,0 1.08,-7.47 0.6,-15.69 5,-22 -6.65,5.32 -4.62,15.54 -7,23 30,0 60,0 90,0 -0.22,-0.95 0.39,-2.74 -1,-3 z"
			id="path111" />
	</g>
	<g fill="#562712" fill-opacity="1" stroke="None" id="g112" transform="translate(-188.8241,-195.60087)">
		<path
			d="m 342,473 c 0,1 0,2 0,3 -29.33,0 -58.67,0 -88,0 -0.34,-2.55 1.67,-4.39 1,-7 -1.56,1.96 -1.9,5.29 -2,8 30,0 60,0 90,0 -0.28,-1.25 0.6,-3.47 -1,-4 z"
			id="path112" />
	</g>
	<g fill="#020101" fill-opacity="1" stroke="None" id="g113" transform="translate(-188.8241,-195.60087)">
		<path
			d="m 346,483 c -18.18,0.66 -37.57,-1.33 -55,1 0.55,3.4 2.21,6.44 2,10 17.33,0 34.67,0 52,0 6.31,-6.04 17.08,-7.23 24,-13 -7.78,0.26 -15.19,1.91 -23,2 z"
			id="path113" />
	</g>
	<g fill="#2e3943" fill-opacity="1" stroke="None" id="g114" transform="translate(-188.8241,-195.60087)">
		<path
			d="m 345,494 c 1.42,1.67 0.89,3.96 1,6 0.46,22.88 3.8,45.04 4,68 0.34,-0.23 1,0 1,0 3.27,-11.37 15.29,-19.44 24,-27 0,-3 0,-6 0,-9 -2.19,-16.82 -1,-35.61 -6,-51 -6.92,5.77 -17.69,6.96 -24,13 z"
			id="path114" />
	</g>
	<g fill="#42525c" fill-opacity="1" stroke="None" id="g115" transform="translate(-188.8241,-195.60087)">
		<path
			d="m 627,484 c 8.27,0.97 15.06,6.81 23,9 2.8,1.33 7.31,1.52 6,6 16.33,0 32.67,0 49,0 -0.2,-1.87 1.62,-3.06 1,-5 -16.67,0 -33.33,0 -50,0 2.41,-7.79 -6.41,-6.04 -11.02,-7.98 -4.7,-2.41 -10.65,-2.55 -14.98,-5.02 -2.17,-0.43 -2.07,1.78 -3,3 z"
			id="path115" />
	</g>
	<g fill="#010101" fill-opacity="1" stroke="None" id="g116" transform="translate(-188.8241,-195.60087)">
		<path
			d="m 706,494 c 0.77,-3.33 1.57,-6.62 2,-10 -18.83,-0.67 -38.99,1.33 -57,-1 -1,0 -2,0 -3,0 -2.62,-0.42 -6.83,1.3 -8,-2 -2,0 -4,0 -6,0 -1.33,0 -2.67,0 -4,0 4.33,2.47 10.28,2.61 14.98,5.02 4.61,1.94 13.43,0.19 11.02,7.98 16.67,0 33.33,0 50,0 z"
			id="path116" />
	</g>
	<g fill="#48240e" fill-opacity="1" stroke="None" id="g117" transform="translate(-188.8241,-195.60087)">
		<path d="m 648,483 c -0.25,-0.27 0,-1 0,-1 -2.92,0.63 -5.26,-1.03 -8,-1 1.17,3.3 5.38,1.58 8,2 z"
			id="path117" />
	</g>
	<g fill="#7f4424" fill-opacity="1" stroke="None" id="g118" transform="translate(-188.8241,-195.60087)">
		<path
			d="m 648,483 c 1,0 2,0 3,0 19,0 38,0 57,0 -17.68,-2.33 -37.5,-0.33 -56,-1 -1.33,0 -2.67,0 -4,0 0,0 -0.25,0.73 0,1 z"
			id="path118" />
	</g>
	<g fill="#2c1005" fill-opacity="1" stroke="None" id="g119" transform="translate(-188.8241,-195.60087)">
		<path d="m 708,484 c 0,0 0.25,-0.74 0,-1 -19,0 -38,0 -57,0 18.01,2.33 38.17,0.33 57,1 z" id="path119" />
	</g>
	<g fill="#9eafb7" fill-opacity="1" stroke="None" id="g120" transform="translate(-188.8241,-195.60087)">
		<path
			d="m 627,490 c -0.61,3.17 1.25,7.65 -1,10 -0.07,7.75 -1.66,15.07 -1,23 -1.55,10.01 -1.56,19.56 9.08,23.92 6.28,5.89 13.58,11.83 15.92,20.08 -0.18,0.74 0.05,1.91 1,2 0.56,-24.52 3.81,-48.37 4,-73 -1.51,-1.36 -4.46,-0.49 -5,-3 -7.94,-2.19 -14.73,-8.03 -23,-9 0,2 0,4 0,6 z"
			id="path120" />
	</g>
	<g fill="#74554f" fill-opacity="1" stroke="None" id="g121" transform="translate(-188.8241,-195.60087)">
		<path d="m 626,500 c 2.25,-2.35 0.39,-6.83 1,-10 -2.25,2.35 -0.39,6.83 -1,10 z" id="path121" />
	</g>
	<g fill="#647683" fill-opacity="1" stroke="None" id="g122" transform="translate(-188.8241,-195.60087)">
		<path
			d="m 651,569 c 0,1 0,2 0,3 0,0.5 0,1.5 0,2 3.1,7.56 7.68,15.33 9.33,23.67 2.85,8.36 -5.74,16.43 -6.33,23.33 15.02,-2.11 30.84,-9.81 30.67,-27.33 6.46,-31.66 14.08,-62.98 20.33,-94.67 -16.33,0 -32.67,0 -49,0 1.31,-4.48 -3.2,-4.67 -6,-6 0.54,2.51 3.49,1.64 5,3 -0.19,24.63 -3.44,48.48 -4,73 z"
			id="path122" />
	</g>
	<g fill="#475b66" fill-opacity="1" stroke="None" id="g123" transform="translate(-188.8241,-195.60087)">
		<path
			d="m 294,498 c 16.75,2.97 35.28,-0.97 52,2 -0.11,-2.04 0.42,-4.33 -1,-6 -17.33,0 -34.67,0 -52,0 -0.43,1.6 1.37,2.46 1,4 z"
			id="path123" />
	</g>
	<g fill="#8397a3" fill-opacity="1" stroke="None" id="g124" transform="translate(-188.8241,-195.60087)">
		<path
			d="m 350,622 c -17.48,-12.61 -10.18,-34.5 -1,-49 0.11,-1 -0.47,-2.73 1,-3 0,-0.5 0,-1.5 0,-2 -0.2,-22.96 -3.54,-45.12 -4,-68 -16.72,-2.97 -35.25,0.97 -52,-2 7.71,32.55 14.66,65.35 22.01,97.99 C 315.62,614.61 336,618.58 350,622 Z"
			id="path124" />
	</g>
	<g fill="#adaca7" fill-opacity="1" stroke="None" id="g125" transform="translate(-188.8241,-195.60087)">
		<path
			d="m 623,532 c 0,2.67 0,5.33 0,8 10.43,6.35 20.39,16.91 27,27 -2.34,-8.25 -9.64,-14.19 -15.92,-20.08 -10.64,-4.36 -10.63,-13.91 -9.08,-23.92 -2.55,2.01 0.41,6.56 -2,9 z"
			id="path125" />
	</g>
	<g fill="#be9a75" fill-opacity="1" stroke="None" id="g127" transform="translate(-188.8241,-195.60087)">
		<path
			d="m 609,542 c 18.06,-5.11 32.36,14.2 40,28 0.13,0.27 0.97,0.65 1,1 0.05,0.5 0,1 0,1 0.25,0.25 1,0 1,0 0,-1 0,-2 0,-3 -0.95,-0.09 -1.18,-1.26 -1,-2 -6.61,-10.09 -16.57,-20.65 -27,-27 -4.74,0.04 -10.25,-0.54 -14,2 z"
			id="path127" />
	</g>
	<g fill="#752515" fill-opacity="1" stroke="None" id="g128" transform="translate(-188.8241,-195.60087)">
		<path
			d="m 351,568 c 0.74,-0.18 1.91,0.05 2,1 9.71,-0.06 24.4,11.08 30.92,1.92 3.58,-9.59 9.67,-18.27 13.08,-27.92 -7.29,-1.14 -15.18,-1.83 -22,-2 -8.71,7.56 -20.73,15.63 -24,27 z"
			id="path128" />
	</g>
	<g fill="#d3782f" fill-opacity="1" stroke="None" id="g129" transform="translate(-188.8241,-195.60087)">
		<path
			d="m 609,542 c -68.52,11.69 -143.25,12.55 -212,1 -3.41,9.65 -9.5,18.33 -13.08,27.92 -6.52,9.16 -21.21,-1.98 -30.92,-1.92 -1.41,-0.51 -2.15,0.81 -2,2 94.31,29.44 204.27,32.24 298,-1 -7.64,-13.8 -21.94,-33.11 -40,-28 z"
			id="path129" />
	</g>
	<g fill="#ab8772" fill-opacity="1" stroke="None" id="g130" transform="translate(-188.8241,-195.60087)">
		<path d="m 516,545 c 3.51,-0.55 8.24,1.16 11,-1 -3.51,0.55 -8.24,-1.16 -11,1 z" id="path130" />
	</g>
	<g fill="#6e473f" fill-opacity="1" stroke="None" id="g131" transform="translate(-188.8241,-195.60087)">
		<path
			d="m 350,570 c 0.66,7.83 -1.33,16.99 1,24 0,-7.67 0,-15.33 0,-23 -0.15,-1.19 0.59,-2.51 2,-2 -0.09,-0.95 -1.26,-1.18 -2,-1 0,0 -0.66,-0.23 -1,0 0,0.5 0,1.5 0,2 z"
			id="path131" />
	</g>
	<g fill="#5e585b" fill-opacity="1" stroke="None" id="g132" transform="translate(-188.8241,-195.60087)">
		<path
			d="m 349,573 c 0.1,10.07 -0.64,20.96 2,30 0.03,-0.5 0,-1 0,-1 0,-2.67 0,-5.33 0,-8 -2.33,-7.01 -0.34,-16.17 -1,-24 -1.47,0.27 -0.89,2 -1,3 z"
			id="path132" />
	</g>
	<g fill="#872c18" fill-opacity="1" stroke="None" id="g133" transform="translate(-188.8241,-195.60087)">
		<path
			d="m 351,571 c 0,7.67 0,15.33 0,23 0,2.67 0,5.33 0,8 10.23,20.93 38.57,19.86 58.01,26.99 73.32,15.14 155.88,14.38 224.99,-12.99 18.92,-6.16 12.9,-29.98 16,-45 -0.03,-0.35 -0.87,-0.73 -1,-1 -93.73,33.24 -203.69,30.44 -298,1 z"
			id="path133" />
	</g>
	<g fill="#5b2a22" fill-opacity="1" stroke="None" id="g134" transform="translate(-188.8241,-195.60087)">
		<path
			d="m 634,616 c 7.8,-1.23 13.07,-8.18 15,-15 0.52,-2.19 -1.14,-5.62 1,-7 0,-2.67 0,-5.33 0,-8 0,-4.67 0,-9.33 0,-14 0,0 0.05,-0.5 0,-1 -3.1,15.02 2.92,38.84 -16,45 z"
			id="path134" />
	</g>
	<g fill="#5c4c48" fill-opacity="1" stroke="None" id="g135" transform="translate(-188.8241,-195.60087)">
		<path d="m 650,586 c 2.19,-3.09 0.43,-8.16 1,-12 0,-0.5 0,-1.5 0,-2 0,0 -0.75,0.25 -1,0 0,4.67 0,9.33 0,14 z"
			id="path135" />
	</g>
	<g fill="#566873" fill-opacity="1" stroke="None" id="g136" transform="translate(-188.8241,-195.60087)">
		<path
			d="m 350,622 c 2.6,2.16 6.52,3.5 10,4 1.16,-1.49 3.34,-2.02 5,-3 -0.56,-1.26 -2.85,-1.25 -3,-3 -6.31,-2.79 -11.73,-9.72 -11,-17 -2.64,-9.04 -1.9,-19.93 -2,-30 -9.18,14.5 -16.48,36.39 1,49 z"
			id="path136" />
	</g>
	<g fill="#42525a" fill-opacity="1" stroke="None" id="g137" transform="translate(-188.8241,-195.60087)">
		<path
			d="m 650,586 c 0,2.67 0,5.33 0,8 -0.59,2.84 1.22,6.98 -1,9 -4.37,25.58 -38.06,22.83 -57.02,30.98 C 516.74,650.47 433.39,646.61 362,620 c 0.15,1.75 2.44,1.74 3,3 -1.66,0.98 -3.84,1.51 -5,3 26.47,10.78 55.85,14.87 84,21 34.58,0.59 72.8,4.42 108,-1 0,1 0,2 0,3 1.47,-0.27 0.89,-2 1,-3 34.78,-4.19 68.64,-12.43 101,-25 0.59,-6.9 9.18,-14.97 6.33,-23.33 -1.65,-8.34 -6.23,-16.11 -9.33,-23.67 -0.57,3.84 1.19,8.91 -1,12 z"
			id="path137" />
	</g>
	<g fill="#463b3d" fill-opacity="1" stroke="None" id="g138" transform="translate(-188.8241,-195.60087)">
		<path d="m 649,601 c 0.03,0.5 -0.02,1.5 0,2 2.22,-2.02 0.41,-6.16 1,-9 -2.14,1.38 -0.48,4.81 -1,7 z"
			id="path138" />
	</g>
	<g fill="#060303" fill-opacity="1" stroke="None" id="g139" transform="translate(-188.8241,-195.60087)">
		<path
			d="M 634,616 C 564.89,643.37 482.33,644.13 409.01,628.99 389.57,621.86 361.23,622.93 351,602 c 0,0 0.03,0.5 0,1 -0.73,7.28 4.69,14.21 11,17 71.39,26.61 154.74,30.47 229.98,13.98 18.96,-8.15 52.65,-5.4 57.02,-30.98 -0.02,-0.5 0.03,-1.5 0,-2 -1.93,6.82 -7.2,13.77 -15,15 z"
			id="path139" />
	</g>
	<g fill="#000000" fill-opacity="1" stroke="None" id="g140" transform="translate(-188.8241,-195.60087)">
		<path
			d="m 444,647 c 1.59,9.62 1.99,19.51 4,29 -0.15,-9.85 10.87,-6.57 18,-7 25,0 50,0 75,0 11.7,-1.62 1.49,12.92 6,18 2.79,-12.36 4.3,-25.1 5,-38 0,-1 0,-2 0,-3 -35.2,5.42 -73.42,1.59 -108,1 z"
			id="path140" />
	</g>
	<g fill="#131c27" fill-opacity="1" stroke="None" id="g141" transform="translate(-188.8241,-195.60087)">
		<path
			d="m 448,676 c -0.71,3.95 1.48,7.13 1,11 32.16,2.33 65.42,0.34 98,1 0,0 -0.15,-0.55 0,-1 -4.51,-5.08 5.7,-19.62 -6,-18 -25,0 -50,0 -75,0 -7.13,0.43 -18.15,-2.85 -18,7 z"
			id="path141" />
	</g>
	<g fill="#3a4754" fill-opacity="1" stroke="None" id="g142" transform="translate(-188.8241,-195.60087)">
		<path
			d="m 452,716 c -0.3,1.25 -1.83,1.71 -2,3 32,0 64,0 96,0 -5.17,-9.82 1.57,-20.65 1,-31 -32.58,-0.66 -65.84,1.33 -98,-1 0.63,9.78 3.82,18.87 3,29 z"
			id="path142" />
	</g>
	<g fill="#51606e" fill-opacity="1" stroke="None" id="g143" transform="translate(-188.8241,-195.60087)">
		<path
			d="m 412,732 c 3.28,-0.2 0.31,1.61 -1,2 10.4,10.17 23.68,17.32 35,26 -34.67,0 -69.33,0 -104,0 -0.53,-1.28 0.97,-1.86 1,-3 -1.83,0.49 -2.18,2.35 -2,4 35,0 70,0 105,0 38.27,-1.67 79.81,-1.67 118,0 29.67,0 59.33,0 89,0 0.28,-0.67 1.48,-1.78 0,-2 -28.27,1.67 -59.81,1.67 -88,0 8.31,-2.48 15.22,-8.93 23,-13 1.79,-3.19 6.47,-3.48 8,-7 -2.84,-1.76 -6.51,-3.25 -10,-4 -1.81,0.14 -4.08,-0.44 -5,-2 -11.65,-4.8 -23.38,-9.11 -35,-14 -32,0 -64,0 -96,0 0.17,-1.29 1.7,-1.75 2,-3 -11.96,8.1 -26.52,12.69 -40,16 z"
			id="path143" />
	</g>
	<g fill="#101a23" fill-opacity="1" stroke="None" id="g144" transform="translate(-188.8241,-195.60087)">
		<path
			d="m 294,765 c 126.37,19.81 267.34,24.28 394,2 -12.08,-9.76 -25.26,-20.11 -38.99,-27.01 -19.96,-2.2 -39.74,-5.09 -60.01,-5.99 -1,0.11 -2.73,-0.47 -3,1 3.49,0.75 7.16,2.24 10,4 1.28,0.28 3.5,-0.76 4,1 17.38,6.29 37.52,11.23 53,19 1.48,0.22 0.28,1.33 0,2 1.6,0.53 0.72,2.75 1,4 -103.85,2.27 -208.74,0.38 -313,1 0,-1.67 0,-3.33 0,-5 -0.18,-1.65 0.17,-3.51 2,-4 22.91,-6.73 45.2,-15.74 68,-23 1.31,-0.39 4.28,-2.2 1,-2 -23.11,1.94 -46,4.7 -69,7 -20.24,-1.35 -33.31,15.91 -49,26 z"
			id="path144" />
	</g>
	<g fill="#394243" fill-opacity="1" stroke="None" id="g145" transform="translate(-188.8241,-195.60087)">
		<path d="m 586,735 c 0.27,-1.47 2,-0.89 3,-1 -1.7,-2.19 -5.48,-0.44 -8,-1 0.92,1.56 3.19,2.14 5,2 z"
			id="path145" />
	</g>
	<g fill="#93a4ab" fill-opacity="1" stroke="None" id="g146" transform="translate(-188.8241,-195.60087)">
		<path
			d="m 343,757 c -0.03,1.14 -1.53,1.72 -1,3 34.67,0 69.33,0 104,0 -11.32,-8.68 -24.6,-15.83 -35,-26 -22.8,7.26 -45.09,16.27 -68,23 z"
			id="path146" />
	</g>
	<g fill="#71818b" fill-opacity="1" stroke="None" id="g147" transform="translate(-188.8241,-195.60087)">
		<path d="m 588,746 c 4.29,-1.52 7.14,-6.13 12,-6 -0.5,-1.76 -2.72,-0.72 -4,-1 -1.53,3.52 -6.21,3.81 -8,7 z"
			id="path147" />
	</g>
	<g fill="#9ba9b0" fill-opacity="1" stroke="None" id="g148" transform="translate(-188.8241,-195.60087)">
		<path
			d="m 588,746 c -7.78,4.07 -14.69,10.52 -23,13 28.19,1.67 59.73,1.67 88,0 -15.48,-7.77 -35.62,-12.71 -53,-19 -4.86,-0.13 -7.71,4.48 -12,6 z"
			id="path148" />
	</g>
	<g fill="#2f363c" fill-opacity="1" stroke="None" id="g149" transform="translate(-188.8241,-195.60087)">
		<path d="m 446,761 c 39.33,0 78.67,0 118,0 -38.19,-1.67 -79.73,-1.67 -118,0 z" id="path149" />
	</g>
	<g fill="#000103" fill-opacity="1" stroke="None" id="g150" transform="translate(-188.8241,-195.60087)">
		<path
			d="m 653,761 c -29.67,0 -59.33,0 -89,0 -39.33,0 -78.67,0 -118,0 -35,0 -70,0 -105,0 0,1.67 0,3.33 0,5 104.26,-0.62 209.15,1.27 313,-1 -0.28,-1.25 0.6,-3.47 -1,-4 z"
			id="path150" />
	</g>
	<g fill="#27323c" fill-opacity="1" stroke="None" id="g151" transform="translate(-188.8241,-195.60087)">
		<path
			d="m 250,803 c 160.33,0 320.67,0 481,0 2.18,-9.44 -13.35,-13.51 -19.25,-19.75 -7.86,-5.49 -15.39,-11.91 -23.75,-16.25 -126.66,22.28 -267.63,17.81 -394,-2 -14.65,10.67 -28.97,22.28 -44,32 0,2 0,4 0,6 z"
			id="path151" />
	</g>
	<g fill="#6b706c" fill-opacity="1" stroke="None" id="g152" transform="translate(-188.8241,-195.60087)">
		<path d="m 731,803 c -160.33,0 -320.67,0 -481,0 159.2,1.67 321.73,1.66 481,0 z" id="path152" />
	</g>
</svg>
