<?xml version="1.0" encoding="UTF-8" standalone="no"?>
<svg version="1.0" width="840pt" height="840pt" viewBox="0 0 840 840.00001" preserveAspectRatio="xMidYMid" id="svg25" sodipodi:docname="favicon.svg" inkscape:version="1.4 (e7c3feb100, 2024-10-09)" xmlns:inkscape="http://www.inkscape.org/namespaces/inkscape" xmlns:sodipodi="http://sodipodi.sourceforge.net/DTD/sodipodi-0.dtd" xmlns="http://www.w3.org/2000/svg" xmlns:svg="http://www.w3.org/2000/svg">
  <defs id="defs25"/>
  <sodipodi:namedview id="namedview25" pagecolor="#ffffff" bordercolor="#000000" borderopacity="0.25" inkscape:showpageshadow="2" inkscape:pageopacity="0.0" inkscape:pagecheckerboard="0" inkscape:deskcolor="#d1d1d1" inkscape:document-units="pt" inkscape:zoom="0.42480469" inkscape:cx="564.96552" inkscape:cy="532.0092" inkscape:window-width="3440" inkscape:window-height="1371" inkscape:window-x="0" inkscape:window-y="0" inkscape:window-maximized="1" inkscape:current-layer="g25"/>
  <g transform="matrix(0.1,0,0,-0.1,-600,1423.4182)" fill="#000000" stroke="none" id="g25">
    <path d="m 10070,12895 c -249,-15 -533,-78 -745,-165 -60,-25 -276,-135 -305,-155 -14,-10 -43,-28 -65,-40 -22,-12 -65,-41 -95,-63 -314,-236 -569,-538 -736,-870 -84,-165 -178,-446 -213,-633 -41,-215 -46,-546 -11,-784 36,-254 145,-563 280,-796 62,-108 176,-269 234,-332 l 30,-32 -22,-83 c -12,-45 -34,-120 -48,-167 -14,-47 -97,-332 -184,-635 -194,-676 -207,-721 -221,-766 -6,-20 -9,-41 -6,-46 3,-5 26,-10 51,-12 35,-1 45,2 50,16 14,48 174,617 211,753 23,85 72,259 108,385 36,127 77,276 92,332 15,56 32,109 39,117 9,13 27,-1 111,-82 56,-53 140,-123 187,-155 47,-31 92,-64 99,-73 10,-13 11,-38 1,-132 -7,-65 -34,-335 -62,-602 -27,-267 -50,-500 -50,-517 0,-33 0,-33 50,-33 34,0 50,4 50,13 0,25 41,521 65,772 13,143 27,299 30,348 4,56 11,87 18,87 13,0 108,-47 147,-72 14,-9 37,-20 51,-23 25,-6 26,-6 37,77 14,95 17,90 -86,143 -78,40 -130,74 -135,90 -3,7 3,86 13,176 10,90 24,232 30,314 14,203 55,700 85,1030 13,149 27,308 30,355 8,117 14,150 27,150 6,0 30,-16 54,-35 71,-58 186,-135 195,-129 4,2 5,51 2,107 -6,113 -4,109 -102,186 -67,53 -181,190 -234,279 -173,292 -212,551 -133,865 43,170 132,341 215,414 20,17 88,54 151,81 301,130 605,190 908,179 155,-5 189,-10 387,-48 164,-33 449,-132 531,-185 80,-52 192,-259 239,-444 40,-156 46,-362 15,-496 -64,-279 -190,-484 -407,-666 l -82,-69 6,-97 c 3,-53 7,-99 9,-101 5,-5 70,35 112,69 21,16 57,45 80,65 24,19 47,33 52,30 4,-2 13,-69 19,-147 20,-234 61,-686 71,-783 6,-49 23,-256 40,-459 17,-202 37,-418 45,-480 8,-61 15,-123 15,-138 0,-29 -13,-39 -178,-130 -37,-20 -68,-40 -69,-45 -2,-4 5,-42 15,-83 21,-89 20,-88 131,-26 42,24 84,45 93,49 20,7 22,-1 38,-183 6,-69 19,-217 30,-330 10,-113 26,-296 35,-408 9,-112 20,-224 23,-250 7,-47 7,-47 50,-50 29,-2 44,1 48,11 3,8 -8,133 -25,278 -16,145 -35,327 -41,404 -6,77 -20,219 -30,315 -10,96 -21,199 -23,227 l -4,53 51,32 c 79,50 174,125 259,208 43,41 85,76 92,78 9,2 17,-8 21,-25 16,-70 79,-308 106,-403 16,-58 34,-118 38,-135 5,-16 34,-120 66,-230 31,-110 69,-245 84,-300 88,-319 131,-473 140,-492 8,-19 17,-23 54,-23 25,0 47,4 50,8 5,8 -14,78 -67,247 -14,44 -39,134 -57,200 -18,66 -54,194 -80,285 -26,91 -67,233 -90,315 -23,83 -55,191 -70,240 -16,50 -47,153 -69,230 -22,77 -43,148 -46,156 -4,11 19,47 68,105 77,93 142,188 198,289 214,387 299,722 299,1191 0,329 -67,622 -222,967 -163,362 -473,723 -826,961 -46,31 -85,56 -88,56 -2,0 -33,18 -69,40 -36,22 -67,40 -70,40 -2,0 -51,22 -107,49 -298,141 -713,214 -1088,191 z m 1637,-778 c 335,-333 551,-743 634,-1207 23,-131 33,-445 14,-451 -9,-4 -38,45 -178,301 -33,61 -75,134 -93,163 -19,29 -34,54 -34,56 0,2 -30,57 -66,122 -37,66 -79,143 -95,172 -15,30 -32,59 -37,65 -5,7 -27,46 -50,87 -22,41 -68,120 -101,175 l -61,99 v 81 c 0,89 -21,229 -50,347 -22,85 -24,108 -11,108 5,0 63,-53 128,-118 z m -2857,102 c 0,-3 -9,-36 -20,-72 -31,-103 -50,-235 -50,-341 0,-108 8,-86 -116,-304 -96,-168 -98,-170 -210,-374 -48,-87 -135,-241 -194,-343 -59,-102 -125,-218 -146,-257 -61,-113 -67,-103 -61,95 11,377 137,772 353,1112 94,147 136,200 285,354 113,117 159,155 159,130 z m -44,-712 c 3,-20 17,-77 30,-125 l 23,-89 -76,-201 c -103,-277 -162,-426 -436,-1112 -44,-110 -85,-216 -92,-235 -7,-19 -19,-35 -26,-35 -24,0 -117,295 -149,473 l -11,63 67,127 c 68,129 84,158 159,292 23,41 68,125 100,185 70,133 87,164 155,280 29,50 79,142 112,205 120,229 116,222 129,215 4,-3 11,-22 15,-43 z m 2862,-9 c 34,-69 109,-206 221,-401 44,-79 81,-145 81,-148 0,-2 11,-21 23,-42 13,-20 50,-86 82,-147 32,-60 65,-121 75,-135 9,-14 37,-63 62,-110 25,-47 66,-124 92,-172 54,-99 53,-89 14,-268 -22,-100 -115,-370 -128,-370 -5,0 -32,60 -60,133 -29,72 -60,150 -70,172 -10,22 -34,83 -53,135 -20,52 -67,174 -105,270 -91,227 -148,372 -234,600 -39,102 -79,207 -89,234 l -18,49 29,118 c 27,114 36,139 46,139 2,0 17,-26 32,-57 z m -127,-349 c 10,-27 45,-125 77,-219 103,-291 218,-596 368,-972 79,-199 144,-372 144,-383 0,-39 -194,-340 -218,-340 -4,0 -22,60 -39,133 -18,72 -77,294 -132,492 -55,198 -127,466 -160,595 -34,129 -82,309 -108,399 -25,91 -45,175 -45,188 0,13 10,40 24,61 13,20 30,52 37,70 8,18 18,31 24,29 6,-2 18,-25 28,-53 z m -2586,-39 40,-75 -28,-107 c -15,-60 -50,-189 -77,-288 -27,-99 -83,-306 -124,-460 -101,-371 -128,-471 -180,-655 -24,-85 -50,-181 -56,-212 -22,-97 -29,-98 -83,-15 -95,146 -157,256 -157,278 0,6 11,39 25,75 25,63 33,85 113,294 22,58 68,173 101,255 65,162 167,433 262,695 33,91 69,186 79,212 11,26 20,54 20,62 0,36 28,11 65,-59 z m 167,-228 c 19,-26 19,-34 9,-105 -6,-42 -22,-202 -36,-355 -14,-153 -34,-356 -45,-450 -11,-95 -27,-262 -35,-372 -9,-110 -25,-279 -35,-375 -10,-96 -22,-223 -26,-282 -4,-58 -10,-112 -15,-119 -6,-10 -18,-6 -48,16 -57,39 -299,272 -306,294 -6,21 8,82 100,426 37,138 78,293 92,345 14,52 42,160 63,240 51,193 130,508 164,649 15,62 32,125 37,139 l 10,25 25,-24 c 14,-13 35,-37 46,-52 z m 2262,49 c 3,-14 18,-78 32,-143 14,-65 34,-149 44,-188 66,-241 106,-395 151,-580 28,-115 62,-247 75,-292 13,-45 42,-151 64,-235 22,-84 51,-193 65,-243 13,-49 25,-96 25,-103 0,-27 -316,-322 -346,-322 -16,0 -24,24 -24,69 0,21 -13,163 -29,317 -17,153 -35,342 -41,419 -6,77 -21,239 -34,360 -14,121 -27,256 -31,300 -16,208 -50,511 -61,546 -5,18 71,119 91,119 7,0 16,-11 19,-24 z" id="path1"/>
    <path d="m 10097,11195 c -21,-6 -61,-21 -90,-35 -175,-83 -267,-230 -267,-425 0,-136 40,-229 146,-341 l 53,-55 -20,-90 c -19,-87 -58,-249 -119,-505 -16,-69 -43,-188 -60,-265 -17,-76 -43,-195 -59,-264 -16,-69 -50,-217 -75,-330 -25,-113 -56,-243 -67,-290 -19,-79 -79,-340 -200,-879 -27,-124 -48,-230 -45,-236 3,-9 220,-12 900,-13 493,0 905,2 917,5 15,4 19,12 16,27 -3,12 -14,71 -26,131 -12,61 -31,144 -41,185 -19,76 -36,151 -90,390 -17,74 -35,153 -40,175 -30,127 -51,223 -74,330 -14,66 -46,210 -71,320 -25,110 -68,297 -95,415 -27,118 -60,262 -73,320 -76,324 -118,499 -128,535 l -11,40 69,70 c 79,80 119,155 135,250 33,195 -85,419 -266,505 -62,29 -80,33 -175,36 -58,2 -123,-1 -144,-6 z" id="path2"/>
    <path d="m 5974,7746 c -2,-2 -4,-27 -4,-55 v -51 l 740,-2 741,-2 -3,57 -3,57 h -733 c -404,0 -736,-2 -738,-4 z" id="path3"/>
    <path d="m 12967,7708 c -3,-26 -3,-53 0,-60 4,-11 138,-13 742,-11 l 736,3 v 55 55 l -736,3 -736,2 z" id="path4"/>
  </g>
</svg>
