<?xml version="1.0" encoding="UTF-8" standalone="no"?>
<!-- Created with Inkscape (http://www.inkscape.org/) -->

<svg
   width="108"
   height="148"
   viewBox="0 0 28.574997 39.158319"
   version="1.1"
   id="svg1"
   sodipodi:docname="drawing.svg"
   inkscape:version="1.3.2 (091e20ef0f, 2023-11-25)"
   xmlns:inkscape="http://www.inkscape.org/namespaces/inkscape"
   xmlns:sodipodi="http://sodipodi.sourceforge.net/DTD/sodipodi-0.dtd"
   xmlns="http://www.w3.org/2000/svg"
   xmlns:svg="http://www.w3.org/2000/svg">
  <sodipodi:namedview
     id="namedview1"
     pagecolor="#505050"
     bordercolor="#eeeeee"
     borderopacity="1"
     inkscape:showpageshadow="0"
     inkscape:pageopacity="0"
     inkscape:pagecheckerboard="0"
     inkscape:deskcolor="#505050"
     inkscape:document-units="mm"
     inkscape:zoom="0.78662318"
     inkscape:cx="397.26772"
     inkscape:cy="562.5311"
     inkscape:window-width="1920"
     inkscape:window-height="1131"
     inkscape:window-x="0"
     inkscape:window-y="0"
     inkscape:window-maximized="1"
     inkscape:current-layer="svg1" />
  <defs
     id="defs1" />
  <g
     id="layer1"
     transform="translate(-59.257313,-97.162757)">
    <path
       style="font-weight:bold;font-size:50.8px;font-family:'SFMono Nerd Font';-inkscape-font-specification:'SFMono Nerd Font Bold';stroke-width:0.264583"
       d="m 79.918159,123.25017 c 0,3.84473 -2.282031,6.12676 -6.052344,6.12676 -4.440039,0 -6.72207,-2.90215 -6.72207,-8.63203 v -7.31739 c 0,-5.70507 2.257227,-8.63203 6.622852,-8.63203 3.497461,0 5.953125,2.45567 6.126757,6.22598 h 7.168555 c -0.198437,-7.81348 -5.18418,-12.551171 -13.096875,-12.551171 -8.830468,0 -13.989843,5.481831 -13.989843,14.957221 v 7.31739 c 0,9.47539 5.159375,14.95722 13.989843,14.95722 7.912695,0 13.12168,-4.83691 13.12168,-12.30312 v -7.44141 H 73.245698 v 5.30821 h 6.672461 z"
       id="text1"
       aria-label="G" />
  </g>
</svg>
